<svg version="1" xmlns="http://www.w3.org/2000/svg" width="2901.333" height="2901.333" viewBox="0 0 2176.000000 2176.000000"><path d="M321.2 606.2c-2.2 6.8-30.1 91.9-62.2 189.3-171.1 520.1-239.8 728.9-248.3 755-5.3 15.9-9.8 29.8-10.2 30.7-.7 1.7 4.9 1.8 107.8 1.8h108.6l20.6-62.8c11.4-34.5 23.7-72.2 27.5-83.7 30.8-94.2 168.4-512.1 169.9-516 1.8-4.6 32.8-98.5 72.6-220 9.2-28.1 20.7-63.2 25.6-78.1 4.9-14.9 8.9-27.4 8.9-27.7 0-.4-48.8-.7-108.5-.7H325.1l-3.9 12.2zM960.7 650.2c-36.8 111.9-199.6 606.2-239.6 727.3-59.9 181.7-67.1 203.7-67.1 204.6 0 .5 47.6.9 108.3.9h108.2l109.2-331.3c60-182.1 133-403.4 162.1-491.7 29.1-88.3 53.2-161.7 53.6-163.3l.6-2.7H979.2l-18.5 56.2zM1631 595.1c0 .9-139 423.5-221.5 673.4-17.3 52.2-47.4 143.8-67.1 203.5-19.6 59.7-35.9 109.1-36.1 109.7-.4 1 21.6 1.3 108 1.3h108.5l11.6-34.8c6.3-19.1 55.2-167.5 108.6-329.7 53.4-162.3 97.7-296.6 98.5-298.5 1.4-3.4 53.4-161 102.5-311.3l4.8-14.7h-108.9c-75.5 0-108.9.3-108.9 1.1z"/></svg>