<svg xmlns="http://www.w3.org/2000/svg" viewBox="0 0 67.64 30.73"><defs><style>.a{fill:#c6c6c6;}.b{fill:#9d9d9c;}</style></defs><title>Icon_black_on_white</title><polygon class="a" points="20.29 30.73 27.03 30.73 16.92 0 10.18 0 20.29 30.73"/><polygon class="b" points="15.45 16.02 16.97 0 11.72 4.52 15.45 16.02"/><polygon points="6.74 30.73 0 30.73 10.11 0 16.85 0 6.74 30.73"/><polygon class="a" points="40.61 30.73 47.35 30.73 37.24 0 30.5 0 40.61 30.73"/><polygon class="b" points="35.72 15.8 37.26 0 32.01 4.52 35.72 15.8"/><polygon points="27.06 30.73 20.32 30.73 30.44 0 37.18 0 27.06 30.73"/><polygon class="a" points="60.89 30.73 67.64 30.73 57.52 0 50.78 0 60.89 30.73"/><polygon class="b" points="55.98 15.8 57.52 0 52.27 4.52 55.98 15.8"/><polygon points="47.34 30.73 40.6 30.73 50.72 0 57.46 0 47.34 30.73"/></svg>