<svg xmlns="http://www.w3.org/2000/svg" viewBox="0 0 67.83 44.38"><defs><style>.a{fill:#fff;}.b{fill:#1d1d1b;}.c{fill:#c6c6c6;}.d{fill:#9d9d9c;}</style></defs><title>Logo_black_on_white</title><path class="a" d="M92.82,148.78l1-9,3.76,8,3.76-8,1,9h-.57l-.77-7s-3.39,7.28-3.41,7.28l-3.41-7.28-.77,7Z" transform="translate(-92.79 -104.71)"/><path class="a" d="M106.25,140.1v5.42a3.27,3.27,0,0,0,.36,1.87,2.53,2.53,0,0,0,4,0,3.27,3.27,0,0,0,.36-1.87V140.1h.57v5.42a3.56,3.56,0,0,1-.49,2.22,3.17,3.17,0,0,1-4.91,0,3.57,3.57,0,0,1-.49-2.22V140.1Z" transform="translate(-92.79 -104.71)"/><path class="a" d="M119,141.57a1.85,1.85,0,0,0-1.7-1.07,1.54,1.54,0,0,0-1.61,1.61c0,.94.65,1.25,1.52,1.68a12.17,12.17,0,0,1,1.73.91,1.91,1.91,0,0,1,.92,1.68,2.59,2.59,0,0,1-2.7,2.54,2.48,2.48,0,0,1-2-.91,2.84,2.84,0,0,1-.56-.95l.49-.23a3,3,0,0,0,.47.83,2.08,2.08,0,0,0,1.63.74,2,2,0,0,0,2.09-2,1.53,1.53,0,0,0-.84-1.37c-.25-.14-.75-.4-1.47-.75a3.27,3.27,0,0,1-1.59-1.14,1.87,1.87,0,0,1-.27-1A2.11,2.11,0,0,1,117.3,140a2.32,2.32,0,0,1,2.11,1.24Z" transform="translate(-92.79 -104.71)"/><path class="a" d="M123.41,140.1v8.67h-.57V140.1Z" transform="translate(-92.79 -104.71)"/><path class="a" d="M131.39,144.62H135a4.67,4.67,0,0,1-.88,2.85,4,4,0,0,1-3.26,1.46,4.35,4.35,0,0,1-4.48-4.46,4.42,4.42,0,0,1,4.52-4.47,4.2,4.2,0,0,1,2.72.94,5,5,0,0,1,1,1.09l-.46.36a4,4,0,0,0-.83-1,3.89,3.89,0,0,0-6.4,3.07,3.83,3.83,0,0,0,3.87,3.91,3.6,3.6,0,0,0,3-1.47,3.88,3.88,0,0,0,.57-1.79h-3.07Z" transform="translate(-92.79 -104.71)"/><path class="a" d="M142.55,144.62h3.64a4.66,4.66,0,0,1-.88,2.85,4,4,0,0,1-3.26,1.46,4.35,4.35,0,0,1-4.49-4.46,4.42,4.42,0,0,1,4.52-4.47,4.2,4.2,0,0,1,2.72.94,5,5,0,0,1,1,1.09l-.46.36a4,4,0,0,0-.83-1,3.89,3.89,0,0,0-6.4,3.07A3.83,3.83,0,0,0,142,148.4a3.6,3.6,0,0,0,3-1.47,3.87,3.87,0,0,0,.57-1.79h-3.07Z" transform="translate(-92.79 -104.71)"/><path class="a" d="M153.34,140.63h-3.59v3.15h3.51v.52h-3.51v4h3.59v.52h-4.16V140.1h4.16Z" transform="translate(-92.79 -104.71)"/><path class="a" d="M160,148.78l-2.81-4.09h-.26v4.09h-.57V140.1h1.25a3,3,0,0,1,1.83.44,2.16,2.16,0,0,1,.9,1.86,2.08,2.08,0,0,1-1.46,2.11,3.31,3.31,0,0,1-1.07.17l2.83,4.09Zm-3.07-4.62h.83c1.24,0,2-.65,2-1.77a1.61,1.61,0,0,0-.77-1.51,3.09,3.09,0,0,0-1.33-.26h-.71Z" transform="translate(-92.79 -104.71)"/><path class="b" d="M92.82,148.78l1-9,3.76,8,3.76-8,1,9h-.57l-.77-7s-3.39,7.28-3.41,7.28l-3.41-7.28-.77,7Z" transform="translate(-92.79 -104.71)"/><path class="b" d="M106.25,140.1v5.42a3.27,3.27,0,0,0,.36,1.87,2.53,2.53,0,0,0,4,0,3.27,3.27,0,0,0,.36-1.87V140.1h.57v5.42a3.56,3.56,0,0,1-.49,2.22,3.17,3.17,0,0,1-4.91,0,3.57,3.57,0,0,1-.49-2.22V140.1Z" transform="translate(-92.79 -104.71)"/><path class="b" d="M119,141.57a1.85,1.85,0,0,0-1.7-1.07,1.54,1.54,0,0,0-1.61,1.61c0,.94.65,1.25,1.52,1.68a12.17,12.17,0,0,1,1.73.91,1.91,1.91,0,0,1,.92,1.68,2.59,2.59,0,0,1-2.7,2.54,2.48,2.48,0,0,1-2-.91,2.84,2.84,0,0,1-.56-.95l.49-.23a3,3,0,0,0,.47.83,2.08,2.08,0,0,0,1.63.74,2,2,0,0,0,2.09-2,1.53,1.53,0,0,0-.84-1.37c-.25-.14-.75-.4-1.47-.75a3.27,3.27,0,0,1-1.59-1.14,1.87,1.87,0,0,1-.27-1A2.11,2.11,0,0,1,117.3,140a2.32,2.32,0,0,1,2.11,1.24Z" transform="translate(-92.79 -104.71)"/><path class="b" d="M123.41,140.1v8.67h-.57V140.1Z" transform="translate(-92.79 -104.71)"/><path class="b" d="M131.39,144.62H135a4.67,4.67,0,0,1-.88,2.85,4,4,0,0,1-3.26,1.46,4.35,4.35,0,0,1-4.48-4.46,4.42,4.42,0,0,1,4.52-4.47,4.2,4.2,0,0,1,2.72.94,5,5,0,0,1,1,1.09l-.46.36a4,4,0,0,0-.83-1,3.89,3.89,0,0,0-6.4,3.07,3.83,3.83,0,0,0,3.87,3.91,3.6,3.6,0,0,0,3-1.47,3.88,3.88,0,0,0,.57-1.79h-3.07Z" transform="translate(-92.79 -104.71)"/><path class="b" d="M142.55,144.62h3.64a4.66,4.66,0,0,1-.88,2.85,4,4,0,0,1-3.26,1.46,4.35,4.35,0,0,1-4.49-4.46,4.42,4.42,0,0,1,4.52-4.47,4.2,4.2,0,0,1,2.72.94,5,5,0,0,1,1,1.09l-.46.36a4,4,0,0,0-.83-1,3.89,3.89,0,0,0-6.4,3.07A3.83,3.83,0,0,0,142,148.4a3.6,3.6,0,0,0,3-1.47,3.87,3.87,0,0,0,.57-1.79h-3.07Z" transform="translate(-92.79 -104.71)"/><path class="b" d="M153.34,140.63h-3.59v3.15h3.51v.52h-3.51v4h3.59v.52h-4.16V140.1h4.16Z" transform="translate(-92.79 -104.71)"/><path class="b" d="M160,148.78l-2.81-4.09h-.26v4.09h-.57V140.1h1.25a3,3,0,0,1,1.83.44,2.16,2.16,0,0,1,.9,1.86,2.08,2.08,0,0,1-1.46,2.11,3.31,3.31,0,0,1-1.07.17l2.83,4.09Zm-3.07-4.62h.83c1.24,0,2-.65,2-1.77a1.61,1.61,0,0,0-.77-1.51,3.09,3.09,0,0,0-1.33-.26h-.71Z" transform="translate(-92.79 -104.71)"/><polygon class="c" points="20.29 30.73 27.03 30.73 16.92 0 10.18 0 20.29 30.73"/><polygon class="d" points="15.45 16.02 16.97 0 11.72 4.52 15.45 16.02"/><polygon points="6.74 30.73 0 30.73 10.11 0 16.85 0 6.74 30.73"/><polygon class="c" points="40.61 30.73 47.35 30.73 37.24 0 30.5 0 40.61 30.73"/><polygon class="d" points="35.72 15.8 37.26 0 32.01 4.52 35.72 15.8"/><polygon points="27.06 30.73 20.32 30.73 30.44 0 37.18 0 27.06 30.73"/><polygon class="c" points="60.89 30.73 67.64 30.73 57.52 0 50.78 0 60.89 30.73"/><polygon class="d" points="55.98 15.8 57.52 0 52.27 4.52 55.98 15.8"/><polygon points="47.34 30.73 40.6 30.73 50.72 0 57.46 0 47.34 30.73"/></svg>